<?xml version="1.0" encoding="UTF-8" standalone="no"?>
<!-- Created with Inkscape (http://www.inkscape.org/) -->

<svg
   width="210mm"
   height="297mm"
   viewBox="0 0 210 297"
   version="1.1"
   id="svg1"
   xml:space="preserve"
   inkscape:version="1.3.2 (091e20e, 2023-11-25, custom)"
   sodipodi:docname="BbB.svg"
   xmlns:inkscape="http://www.inkscape.org/namespaces/inkscape"
   xmlns:sodipodi="http://sodipodi.sourceforge.net/DTD/sodipodi-0.dtd"
   xmlns="http://www.w3.org/2000/svg"
   xmlns:svg="http://www.w3.org/2000/svg"><sodipodi:namedview
     id="namedview1"
     pagecolor="#ffffff"
     bordercolor="#000000"
     borderopacity="0.25"
     inkscape:showpageshadow="2"
     inkscape:pageopacity="0.0"
     inkscape:pagecheckerboard="0"
     inkscape:deskcolor="#d1d1d1"
     inkscape:document-units="mm"
     inkscape:zoom="4.7902543"
     inkscape:cx="199.78063"
     inkscape:cy="585.04201"
     inkscape:window-width="2400"
     inkscape:window-height="1494"
     inkscape:window-x="-11"
     inkscape:window-y="-11"
     inkscape:window-maximized="1"
     inkscape:current-layer="layer1" /><defs
     id="defs1" /><g
     inkscape:label="Layer 1"
     inkscape:groupmode="layer"
     id="layer1"><g
       id="rect40065"><path
         style="color:#000000;fill:#875b00;fill-opacity:0;-inkscape-stroke:none"
         d="M 68.025391,86.308594 V 108.2793 H 86.683594 V 86.308594 Z m 0.265625,0.263672 H 86.417969 V 108.01563 H 68.291016 Z"
         id="path40066" /></g><g
       id="g40072"><g
         id="rect40068"
         transform="matrix(0.99990469,-0.01380587,0.01362462,0.99990718,0,0)"><path
           style="color:#000000;fill:#8c4646;-inkscape-stroke:none"
           d="m 84.402169,156.1192 -46.010083,-0.57995 -0.150863,-29.25259 47.137258,0.62969 -0.830464,29.24881"
           id="path40069"
           sodipodi:nodetypes="ccccc" /><path
           style="color:#000000;fill:#875b00;fill-opacity:0;-inkscape-stroke:none"
           d="m 38.197266,126.18164 v 29.43945 h 47.017578 v -29.43945 z m 0.224609,0.22266 h 46.570312 v 28.99218 H 38.421875 Z"
           id="path40070" /></g><g
         id="rect40070"
         transform="rotate(-158.3293)"><path
           style="color:#000000;fill:#8c4646;-inkscape-stroke:none"
           d="m -119.10949,-130.34946 22.854303,0.40784 c 0.843714,0.0151 1.523189,0.67934 1.523189,1.52319 v 5.97558 c 0,0.84385 -41.041692,14.99848 -41.378782,14.22489 l -1.52289,-3.49485 c -0.11831,-0.27151 -0.41149,-0.77615 0.18481,-1.37321 l 16.50387,-16.52492 c 0.59632,-0.59708 0.99179,-0.75357 1.8355,-0.73852 z"
           id="path40071"
           sodipodi:nodetypes="sssssssss" /></g></g><g
       id="rect40066"
       transform="rotate(62.198148)"><path
         style="color:#000000;fill:#b0ff96;fill-opacity:1;-inkscape-stroke:none"
         d="m 130.50293,-5.4760089 20.74263,-12.8721051 c 0.8457,-0.524815 1.17383,0.699069 1.24293,1.691977 l 1.65178,23.7362407 c 0.0691,0.9929055 -0.33352,1.7381229 -1.1767,2.2669807 L 130.92185,23.172059 c -0.93454,0.586162 -1.28014,0.218569 -1.31213,-0.776223 l -0.80414,-25.0074216 c -0.032,-0.9947916 0.85165,-2.3396124 1.69735,-2.8644233 z"
         id="path40067"
         sodipodi:nodetypes="sssssssss" /><path
         style="color:#000000;fill:#875b00;fill-opacity:0;-inkscape-stroke:none"
         d="m 130.50195,-5.6074219 c -1.0663,0 -1.92773,0.8614285 -1.92773,1.9277344 v 9.2949219 c 0,1.0663059 0.86143,1.9296875 1.92773,1.9296875 h 12.14649 c 1.0663,0 1.92968,-0.8633816 1.92968,-1.9296875 v -9.2949219 c 0,-1.0663059 -0.86338,-1.9277344 -1.92968,-1.9277344 z m 0,0.2636719 h 12.14649 c 0.9243,0 1.66601,0.7397589 1.66601,1.6640625 v 9.2949219 c 0,0.9243036 -0.74171,1.6640625 -1.66601,1.6640625 h -12.14649 c -0.9243,0 -1.66406,-0.7397589 -1.66406,-1.6640625 v -9.2949219 c 0,-0.9243036 0.73976,-1.6640625 1.66406,-1.6640625 z"
         id="path40068" /></g><g
       id="path40072"
       inkscape:transform-center-x="0.33538522"
       inkscape:transform-center-y="-0.19533829"
       transform="translate(-2.1480857,2.6558151)"><path
         style="color:#000000;fill:#875b00;fill-opacity:0;-inkscape-stroke:none"
         d="m 38.099609,125.47461 1.910157,3.58984 2.154296,-3.44922 z m 0.449219,0.2793 3.148438,0.10937 -1.667969,2.67188 z"
         id="path40074" /></g><path
       sodipodi:type="star"
       style="fill:#b0ff96;fill-opacity:1;stroke:#875b00;stroke-width:0.264583;stroke-opacity:0"
       id="path40075"
       inkscape:flatsided="true"
       sodipodi:sides="3"
       sodipodi:cx="16.013002"
       sodipodi:cy="95.999908"
       sodipodi:r1="7.4437494"
       sodipodi:r2="3.7218747"
       sodipodi:arg1="-2.5768755"
       sodipodi:arg2="-1.529678"
       inkscape:rounded="0.19"
       inkscape:randomized="0"
       d="m 9.7249695,92.016186 c 1.3110015,-2.069327 11.7454665,-1.640037 12.8820545,0.529988 1.136588,2.170024 -4.45242,10.991886 -6.90001,10.891196 -2.447591,-0.1007 -7.2930465,-9.351858 -5.9820445,-11.421184 z"
       inkscape:transform-center-x="-0.21700498"
       inkscape:transform-center-y="0.1818927"
       transform="matrix(0.32776356,0.08650129,-0.06522031,0.30577599,42.903541,96.311975)" /><path
       sodipodi:type="star"
       style="fill:#b0ff96;fill-opacity:1;stroke:#875b00;stroke-width:0.264583;stroke-opacity:0"
       id="path40078"
       inkscape:flatsided="true"
       sodipodi:sides="3"
       sodipodi:cx="16.013002"
       sodipodi:cy="95.999908"
       sodipodi:r1="7.4437494"
       sodipodi:r2="3.7218747"
       sodipodi:arg1="-2.5768755"
       sodipodi:arg2="-1.529678"
       inkscape:rounded="0.19"
       inkscape:randomized="0"
       d="m 9.7249695,92.016186 c 1.3110015,-2.069327 11.7454665,-1.640037 12.8820545,0.529988 1.136588,2.170024 -4.45242,10.991886 -6.90001,10.891196 -2.447591,-0.1007 -7.2930465,-9.351858 -5.9820445,-11.421184 z"
       inkscape:transform-center-x="-0.3057101"
       inkscape:transform-center-y="0.038007984"
       transform="matrix(-0.01380111,-0.30333378,0.28669833,-0.02575853,17.139125,136.96084)" /><path
       sodipodi:type="star"
       style="fill:#b0ff96;fill-opacity:1;stroke:#875b00;stroke-width:0.264583;stroke-opacity:0"
       id="path40079"
       inkscape:flatsided="true"
       sodipodi:sides="3"
       sodipodi:cx="16.013002"
       sodipodi:cy="95.999908"
       sodipodi:r1="7.4437494"
       sodipodi:r2="3.7218747"
       sodipodi:arg1="-2.5768755"
       sodipodi:arg2="-1.529678"
       inkscape:rounded="0.19"
       inkscape:randomized="0"
       d="m 9.7249695,92.016186 c 1.3110015,-2.069327 11.7454665,-1.640037 12.8820545,0.529988 1.136588,2.170024 -4.45242,10.991886 -6.90001,10.891196 -2.447591,-0.1007 -7.2930465,-9.351858 -5.9820445,-11.421184 z"
       inkscape:transform-center-x="-0.3057101"
       inkscape:transform-center-y="0.038007984"
       transform="matrix(-0.01380111,-0.30333378,0.28669833,-0.02575853,20.292905,138.58167)" /><path
       sodipodi:type="star"
       style="fill:#b0ff96;fill-opacity:1;stroke:#875b00;stroke-width:0.264583;stroke-opacity:0"
       id="path40080"
       inkscape:flatsided="true"
       sodipodi:sides="3"
       sodipodi:cx="16.013002"
       sodipodi:cy="95.999908"
       sodipodi:r1="7.4437494"
       sodipodi:r2="3.7218747"
       sodipodi:arg1="-2.5768755"
       sodipodi:arg2="-1.529678"
       inkscape:rounded="0.19"
       inkscape:randomized="0"
       d="m 9.7249695,92.016186 c 1.3110015,-2.069327 11.7454665,-1.640037 12.8820545,0.529988 1.136588,2.170024 -4.45242,10.991886 -6.90001,10.891196 -2.447591,-0.1007 -7.2930465,-9.351858 -5.9820445,-11.421184 z"
       inkscape:transform-center-x="-0.3057101"
       inkscape:transform-center-y="0.038007984"
       transform="matrix(-0.01380111,-0.30333378,0.28669833,-0.02575853,22.75344,140.26108)" /><path
       sodipodi:type="star"
       style="fill:#b0ff96;fill-opacity:1;stroke:#875b00;stroke-width:0.264583;stroke-opacity:0"
       id="path40081"
       inkscape:flatsided="true"
       sodipodi:sides="3"
       sodipodi:cx="16.013002"
       sodipodi:cy="95.999908"
       sodipodi:r1="7.4437494"
       sodipodi:r2="3.7218747"
       sodipodi:arg1="-2.5768755"
       sodipodi:arg2="-1.529678"
       inkscape:rounded="0.19"
       inkscape:randomized="0"
       d="m 9.7249695,92.016186 c 1.3110015,-2.069327 11.7454665,-1.640037 12.8820545,0.529988 1.136588,2.170024 -4.45242,10.991886 -6.90001,10.891196 -2.447591,-0.1007 -7.2930465,-9.351858 -5.9820445,-11.421184 z"
       inkscape:transform-center-x="-0.3057101"
       inkscape:transform-center-y="0.038007984"
       transform="matrix(-0.01380111,-0.30333378,0.28669833,-0.02575853,25.56548,141.92096)" /><path
       sodipodi:type="star"
       style="fill:#b0ff96;fill-opacity:1;stroke:#875b00;stroke-width:0.264583;stroke-opacity:0"
       id="path40082"
       inkscape:flatsided="true"
       sodipodi:sides="3"
       sodipodi:cx="16.013002"
       sodipodi:cy="95.999908"
       sodipodi:r1="7.4437494"
       sodipodi:r2="3.7218747"
       sodipodi:arg1="-2.5768755"
       sodipodi:arg2="-1.529678"
       inkscape:rounded="0.19"
       inkscape:randomized="0"
       d="m 9.7249695,92.016186 c 1.3110015,-2.069327 11.7454665,-1.640037 12.8820545,0.529988 1.136588,2.170024 -4.45242,10.991886 -6.90001,10.891196 -2.447591,-0.1007 -7.2930465,-9.351858 -5.9820445,-11.421184 z"
       inkscape:transform-center-x="-0.3057101"
       inkscape:transform-center-y="0.038007984"
       transform="matrix(-0.01380111,-0.30333378,0.28669833,-0.02575853,28.47516,143.57108)" /><path
       sodipodi:type="star"
       style="fill:#b0ff96;fill-opacity:1;stroke:#875b00;stroke-width:0.264583;stroke-opacity:0"
       id="path40083"
       inkscape:flatsided="true"
       sodipodi:sides="3"
       sodipodi:cx="16.013002"
       sodipodi:cy="95.999908"
       sodipodi:r1="7.4437494"
       sodipodi:r2="3.7218747"
       sodipodi:arg1="-2.5768755"
       sodipodi:arg2="-1.529678"
       inkscape:rounded="0.19"
       inkscape:randomized="0"
       d="m 9.7249695,92.016186 c 1.3110015,-2.069327 11.7454665,-1.640037 12.8820545,0.529988 1.136588,2.170024 -4.45242,10.991886 -6.90001,10.891196 -2.447591,-0.1007 -7.2930465,-9.351858 -5.9820445,-11.421184 z"
       inkscape:transform-center-x="-0.3057101"
       inkscape:transform-center-y="0.038007984"
       transform="matrix(-0.01380111,-0.30333378,0.28669833,-0.02575853,28.47516,143.57108)" /><path
       sodipodi:type="star"
       style="fill:#b0ff96;fill-opacity:1;stroke:#875b00;stroke-width:0.264583;stroke-opacity:0"
       id="path40084"
       inkscape:flatsided="true"
       sodipodi:sides="3"
       sodipodi:cx="16.013002"
       sodipodi:cy="95.999908"
       sodipodi:r1="7.4437494"
       sodipodi:r2="3.7218747"
       sodipodi:arg1="-2.5768755"
       sodipodi:arg2="-1.529678"
       inkscape:rounded="0.19"
       inkscape:randomized="0"
       d="m 9.7249695,92.016186 c 1.3110015,-2.069327 11.7454665,-1.640037 12.8820545,0.529988 1.136588,2.170024 -4.45242,10.991886 -6.90001,10.891196 -2.447591,-0.1007 -7.2930465,-9.351858 -5.9820445,-11.421184 z"
       inkscape:transform-center-x="-0.3057101"
       inkscape:transform-center-y="0.038007984"
       transform="matrix(-0.01380111,-0.30333378,0.28669833,-0.02575853,31.677761,145.40672)" /><path
       sodipodi:type="star"
       style="fill:#b0ff96;fill-opacity:1;stroke:#875b00;stroke-width:0.264583;stroke-opacity:0"
       id="path40085"
       inkscape:flatsided="true"
       sodipodi:sides="3"
       sodipodi:cx="16.013002"
       sodipodi:cy="95.999908"
       sodipodi:r1="7.4437494"
       sodipodi:r2="3.7218747"
       sodipodi:arg1="-2.5768755"
       sodipodi:arg2="-1.529678"
       inkscape:rounded="0.19"
       inkscape:randomized="0"
       d="m 9.7249695,92.016186 c 1.3110015,-2.069327 11.7454665,-1.640037 12.8820545,0.529988 1.136588,2.170024 -4.45242,10.991886 -6.90001,10.891196 -2.447591,-0.1007 -7.2930465,-9.351858 -5.9820445,-11.421184 z"
       inkscape:transform-center-x="-0.3057101"
       inkscape:transform-center-y="0.038007984"
       transform="matrix(-0.01380111,-0.30333378,0.28669833,-0.02575853,34.724137,147.55481)" /><path
       sodipodi:type="star"
       style="fill:#b0ff96;fill-opacity:1;stroke:#875b00;stroke-width:0.264583;stroke-opacity:0"
       id="path40086"
       inkscape:flatsided="true"
       sodipodi:sides="3"
       sodipodi:cx="16.013002"
       sodipodi:cy="95.999908"
       sodipodi:r1="7.4437494"
       sodipodi:r2="3.7218747"
       sodipodi:arg1="-2.5768755"
       sodipodi:arg2="-1.529678"
       inkscape:rounded="0.19"
       inkscape:randomized="0"
       d="m 9.7249695,92.016186 c 1.3110015,-2.069327 11.7454665,-1.640037 12.8820545,0.529988 1.136588,2.170024 -4.45242,10.991886 -6.90001,10.891196 -2.447591,-0.1007 -7.2930465,-9.351858 -5.9820445,-11.421184 z"
       inkscape:transform-center-x="-0.3057101"
       inkscape:transform-center-y="0.038007984"
       transform="matrix(-0.01380111,-0.30333378,0.28669833,-0.02575853,34.724137,147.55481)" /><path
       sodipodi:type="star"
       style="fill:#b0ff96;fill-opacity:1;stroke:#875b00;stroke-width:0.264583;stroke-opacity:0"
       id="path40087"
       inkscape:flatsided="true"
       sodipodi:sides="3"
       sodipodi:cx="16.013002"
       sodipodi:cy="95.999908"
       sodipodi:r1="7.4437494"
       sodipodi:r2="3.7218747"
       sodipodi:arg1="-2.5768755"
       sodipodi:arg2="-1.529678"
       inkscape:rounded="0.19"
       inkscape:randomized="0"
       d="m 9.7249695,92.016186 c 1.3110015,-2.069327 11.7454665,-1.640037 12.8820545,0.529988 1.136588,2.170024 -4.45242,10.991886 -6.90001,10.891196 -2.447591,-0.1007 -7.2930465,-9.351858 -5.9820445,-11.421184 z"
       inkscape:transform-center-x="0.31035706"
       inkscape:transform-center-y="0.087919917"
       transform="matrix(-0.25495815,-0.16491876,0.14552359,-0.24835926,55.949668,167.03943)" /><path
       sodipodi:type="star"
       style="fill:#b0ff96;fill-opacity:1;stroke:#875b00;stroke-width:0.264583;stroke-opacity:0"
       id="path40088"
       inkscape:flatsided="true"
       sodipodi:sides="3"
       sodipodi:cx="16.013002"
       sodipodi:cy="95.999908"
       sodipodi:r1="7.4437494"
       sodipodi:r2="3.7218747"
       sodipodi:arg1="-2.5768755"
       sodipodi:arg2="-1.529678"
       inkscape:rounded="0.19"
       inkscape:randomized="0"
       d="m 9.7249695,92.016186 c 1.3110015,-2.069327 11.7454665,-1.640037 12.8820545,0.529988 1.136588,2.170024 -4.45242,10.991886 -6.90001,10.891196 -2.447591,-0.1007 -7.2930465,-9.351858 -5.9820445,-11.421184 z"
       inkscape:transform-center-x="0.31035706"
       inkscape:transform-center-y="0.087919917"
       transform="matrix(-0.25495815,-0.16491876,0.14552359,-0.24835926,59.153221,165.46526)" /><path
       sodipodi:type="star"
       style="fill:#b0ff96;fill-opacity:1;stroke:#875b00;stroke-width:0.264583;stroke-opacity:0"
       id="path40089"
       inkscape:flatsided="true"
       sodipodi:sides="3"
       sodipodi:cx="16.013002"
       sodipodi:cy="95.999908"
       sodipodi:r1="7.4437494"
       sodipodi:r2="3.7218747"
       sodipodi:arg1="-2.5768755"
       sodipodi:arg2="-1.529678"
       inkscape:rounded="0.19"
       inkscape:randomized="0"
       d="m 9.7249695,92.016186 c 1.3110015,-2.069327 11.7454665,-1.640037 12.8820545,0.529988 1.136588,2.170024 -4.45242,10.991886 -6.90001,10.891196 -2.447591,-0.1007 -7.2930465,-9.351858 -5.9820445,-11.421184 z"
       inkscape:transform-center-x="0.31035706"
       inkscape:transform-center-y="0.087919917"
       transform="matrix(-0.25495815,-0.16491876,0.14552359,-0.24835926,61.804437,163.64256)" /><path
       sodipodi:type="star"
       style="fill:#b0ff96;fill-opacity:1;stroke:#875b00;stroke-width:0.264583;stroke-opacity:0"
       id="path40090"
       inkscape:flatsided="true"
       sodipodi:sides="3"
       sodipodi:cx="16.013002"
       sodipodi:cy="95.999908"
       sodipodi:r1="7.4437494"
       sodipodi:r2="3.7218747"
       sodipodi:arg1="-2.5768755"
       sodipodi:arg2="-1.529678"
       inkscape:rounded="0.19"
       inkscape:randomized="0"
       d="m 9.7249695,92.016186 c 1.3110015,-2.069327 11.7454665,-1.640037 12.8820545,0.529988 1.136588,2.170024 -4.45242,10.991886 -6.90001,10.891196 -2.447591,-0.1007 -7.2930465,-9.351858 -5.9820445,-11.421184 z"
       inkscape:transform-center-x="0.31035706"
       inkscape:transform-center-y="0.087919917"
       transform="matrix(-0.25495815,-0.16491876,0.14552359,-0.24835926,64.538504,161.81985)" /><path
       sodipodi:type="star"
       style="fill:#b0ff96;fill-opacity:1;stroke:#875b00;stroke-width:0.264583;stroke-opacity:0"
       id="path40091"
       inkscape:flatsided="true"
       sodipodi:sides="3"
       sodipodi:cx="16.013002"
       sodipodi:cy="95.999908"
       sodipodi:r1="7.4437494"
       sodipodi:r2="3.7218747"
       sodipodi:arg1="-2.5768755"
       sodipodi:arg2="-1.529678"
       inkscape:rounded="0.19"
       inkscape:randomized="0"
       d="m 9.7249695,92.016186 c 1.3110015,-2.069327 11.7454665,-1.640037 12.8820545,0.529988 1.136588,2.170024 -4.45242,10.991886 -6.90001,10.891196 -2.447591,-0.1007 -7.2930465,-9.351858 -5.9820445,-11.421184 z"
       inkscape:transform-center-x="0.31035706"
       inkscape:transform-center-y="0.087919917"
       transform="matrix(-0.25495815,-0.16491876,0.14552359,-0.24835926,67.63159,159.72097)" /><path
       sodipodi:type="star"
       style="fill:#b0ff96;fill-opacity:1;stroke:#875b00;stroke-width:0.264583;stroke-opacity:0"
       id="path40092"
       inkscape:flatsided="true"
       sodipodi:sides="3"
       sodipodi:cx="16.013002"
       sodipodi:cy="95.999908"
       sodipodi:r1="7.4437494"
       sodipodi:r2="3.7218747"
       sodipodi:arg1="-2.5768755"
       sodipodi:arg2="-1.529678"
       inkscape:rounded="0.19"
       inkscape:randomized="0"
       d="m 9.7249695,92.016186 c 1.3110015,-2.069327 11.7454665,-1.640037 12.8820545,0.529988 1.136588,2.170024 -4.45242,10.991886 -6.90001,10.891196 -2.447591,-0.1007 -7.2930465,-9.351858 -5.9820445,-11.421184 z"
       inkscape:transform-center-x="0.31035706"
       inkscape:transform-center-y="0.087919917"
       transform="matrix(-0.25495815,-0.16491876,0.14552359,-0.24835926,67.327805,159.69335)" /><path
       sodipodi:type="star"
       style="fill:#b0ff96;fill-opacity:1;stroke:#875b00;stroke-width:0.264583;stroke-opacity:0"
       id="path40093"
       inkscape:flatsided="true"
       sodipodi:sides="3"
       sodipodi:cx="16.013002"
       sodipodi:cy="95.999908"
       sodipodi:r1="7.4437494"
       sodipodi:r2="3.7218747"
       sodipodi:arg1="-2.5768755"
       sodipodi:arg2="-1.529678"
       inkscape:rounded="0.19"
       inkscape:randomized="0"
       d="m 9.7249695,92.016186 c 1.3110015,-2.069327 11.7454665,-1.640037 12.8820545,0.529988 1.136588,2.170024 -4.45242,10.991886 -6.90001,10.891196 -2.447591,-0.1007 -7.2930465,-9.351858 -5.9820445,-11.421184 z"
       inkscape:transform-center-x="0.31035706"
       inkscape:transform-center-y="0.087919917"
       transform="matrix(-0.25495815,-0.16491876,0.14552359,-0.24835926,70.558975,157.81541)" /><path
       sodipodi:type="star"
       style="fill:#b0ff96;fill-opacity:1;stroke:#875b00;stroke-width:0.264583;stroke-opacity:0"
       id="path40094"
       inkscape:flatsided="true"
       sodipodi:sides="3"
       sodipodi:cx="16.013002"
       sodipodi:cy="95.999908"
       sodipodi:r1="7.4437494"
       sodipodi:r2="3.7218747"
       sodipodi:arg1="-2.5768755"
       sodipodi:arg2="-1.529678"
       inkscape:rounded="0.19"
       inkscape:randomized="0"
       d="m 9.7249695,92.016186 c 1.3110015,-2.069327 11.7454665,-1.640037 12.8820545,0.529988 1.136588,2.170024 -4.45242,10.991886 -6.90001,10.891196 -2.447591,-0.1007 -7.2930465,-9.351858 -5.9820445,-11.421184 z"
       inkscape:transform-center-x="0.31035706"
       inkscape:transform-center-y="0.087919917"
       transform="matrix(-0.25495815,-0.16491876,0.14552359,-0.24835926,73.182574,156.51742)" /><path
       sodipodi:type="star"
       style="fill:#b0ff96;fill-opacity:1;stroke:#875b00;stroke-width:0.264583;stroke-opacity:0"
       id="path40095"
       inkscape:flatsided="true"
       sodipodi:sides="3"
       sodipodi:cx="16.013002"
       sodipodi:cy="95.999908"
       sodipodi:r1="7.4437494"
       sodipodi:r2="3.7218747"
       sodipodi:arg1="-2.5768755"
       sodipodi:arg2="-1.529678"
       inkscape:rounded="0.19"
       inkscape:randomized="0"
       d="m 9.7249695,92.016186 c 1.3110015,-2.069327 11.7454665,-1.640037 12.8820545,0.529988 1.136588,2.170024 -4.45242,10.991886 -6.90001,10.891196 -2.447591,-0.1007 -7.2930465,-9.351858 -5.9820445,-11.421184 z"
       inkscape:transform-center-x="0.31035706"
       inkscape:transform-center-y="0.087919917"
       transform="matrix(-0.25495815,-0.16491876,0.14552359,-0.24835926,70.558975,157.81541)" /><path
       sodipodi:type="star"
       style="fill:#b0ff96;fill-opacity:1;stroke:#875b00;stroke-width:0.264583;stroke-opacity:0"
       id="path40096"
       inkscape:flatsided="true"
       sodipodi:sides="3"
       sodipodi:cx="16.013002"
       sodipodi:cy="95.999908"
       sodipodi:r1="7.4437494"
       sodipodi:r2="3.7218747"
       sodipodi:arg1="-2.5768755"
       sodipodi:arg2="-1.529678"
       inkscape:rounded="0.19"
       inkscape:randomized="0"
       d="m 9.7249695,92.016186 c 1.3110015,-2.069327 11.7454665,-1.640037 12.8820545,0.529988 1.136588,2.170024 -4.45242,10.991886 -6.90001,10.891196 -2.447591,-0.1007 -7.2930465,-9.351858 -5.9820445,-11.421184 z"
       inkscape:transform-center-x="0.31035706"
       inkscape:transform-center-y="0.087919917"
       transform="matrix(-0.25495815,-0.16491876,0.14552359,-0.24835926,70.558975,157.81541)" /><path
       sodipodi:type="star"
       style="fill:#b0ff96;fill-opacity:1;stroke:#875b00;stroke-width:0.264583;stroke-opacity:0"
       id="path40097"
       inkscape:flatsided="true"
       sodipodi:sides="3"
       sodipodi:cx="16.013002"
       sodipodi:cy="95.999908"
       sodipodi:r1="7.4437494"
       sodipodi:r2="3.7218747"
       sodipodi:arg1="-2.5768755"
       sodipodi:arg2="-1.529678"
       inkscape:rounded="0.19"
       inkscape:randomized="0"
       d="m 9.7249695,92.016186 c 1.3110015,-2.069327 11.7454665,-1.640037 12.8820545,0.529988 1.136588,2.170024 -4.45242,10.991886 -6.90001,10.891196 -2.447591,-0.1007 -7.2930465,-9.351858 -5.9820445,-11.421184 z"
       inkscape:transform-center-x="0.31035706"
       inkscape:transform-center-y="0.087919917"
       transform="matrix(-0.25495815,-0.16491876,0.14552359,-0.24835926,70.558975,157.81541)" /><path
       sodipodi:type="star"
       style="fill:#b0ff96;fill-opacity:1;stroke:#875b00;stroke-width:0.264583;stroke-opacity:0"
       id="path40098"
       inkscape:flatsided="true"
       sodipodi:sides="3"
       sodipodi:cx="16.013002"
       sodipodi:cy="95.999908"
       sodipodi:r1="7.4437494"
       sodipodi:r2="3.7218747"
       sodipodi:arg1="-2.5768755"
       sodipodi:arg2="-1.529678"
       inkscape:rounded="0.19"
       inkscape:randomized="0"
       d="m 9.7249695,92.016186 c 1.3110015,-2.069327 11.7454665,-1.640037 12.8820545,0.529988 1.136588,2.170024 -4.45242,10.991886 -6.90001,10.891196 -2.447591,-0.1007 -7.2930465,-9.351858 -5.9820445,-11.421184 z"
       inkscape:transform-center-x="0.31035706"
       inkscape:transform-center-y="0.087919917"
       transform="matrix(-0.25495815,-0.16491876,0.14552359,-0.24835926,73.182574,156.51742)" /><path
       sodipodi:type="star"
       style="fill:#b0ff96;fill-opacity:1;stroke:#875b00;stroke-width:0.264583;stroke-opacity:0"
       id="path40099"
       inkscape:flatsided="true"
       sodipodi:sides="3"
       sodipodi:cx="16.013002"
       sodipodi:cy="95.999908"
       sodipodi:r1="7.4437494"
       sodipodi:r2="3.7218747"
       sodipodi:arg1="-2.5768755"
       sodipodi:arg2="-1.529678"
       inkscape:rounded="0.19"
       inkscape:randomized="0"
       d="m 9.7249695,92.016186 c 1.3110015,-2.069327 11.7454665,-1.640037 12.8820545,0.529988 1.136588,2.170024 -4.45242,10.991886 -6.90001,10.891196 -2.447591,-0.1007 -7.2930465,-9.351858 -5.9820445,-11.421184 z"
       inkscape:transform-center-x="0.31035706"
       inkscape:transform-center-y="0.087919917"
       transform="matrix(-0.25495815,-0.16491876,0.14552359,-0.24835926,74.977668,154.52901)" /><path
       sodipodi:type="star"
       style="fill:#b0ff96;fill-opacity:1;stroke:#875b00;stroke-width:0.264583;stroke-opacity:0"
       id="path40100"
       inkscape:flatsided="true"
       sodipodi:sides="3"
       sodipodi:cx="16.013002"
       sodipodi:cy="95.999908"
       sodipodi:r1="7.4437494"
       sodipodi:r2="3.7218747"
       sodipodi:arg1="-2.5768755"
       sodipodi:arg2="-1.529678"
       inkscape:rounded="0.19"
       inkscape:randomized="0"
       d="m 9.7249695,92.016186 c 1.3110015,-2.069327 11.7454665,-1.640037 12.8820545,0.529988 1.136588,2.170024 -4.45242,10.991886 -6.90001,10.891196 -2.447591,-0.1007 -7.2930465,-9.351858 -5.9820445,-11.421184 z"
       inkscape:transform-center-x="0.31035706"
       inkscape:transform-center-y="0.087919917"
       transform="matrix(-0.25495815,-0.16491876,0.14552359,-0.24835926,75.668089,153.2034)" /><text
       xml:space="preserve"
       style="font-size:6.14886px;fill:#b0ff96;fill-opacity:1;stroke:#875b00;stroke-width:0.513212;stroke-dasharray:none;stroke-opacity:0"
       x="99.619858"
       y="124.11402"
       id="text40100"
       transform="matrix(0.9007267,0.36524427,-0.38661971,0.95344056,0,0)"><tspan
         sodipodi:role="line"
         id="tspan40100"
         style="font-style:normal;font-variant:normal;font-weight:bold;font-stretch:normal;font-family:'Segoe Print';-inkscape-font-specification:'Segoe Print Bold';stroke-width:0.513212;stroke-dasharray:none"
         x="99.619858"
         y="124.11402">Block </tspan></text><text
       xml:space="preserve"
       style="font-size:6.14886px;fill:#b0ff96;fill-opacity:1;stroke:#875b00;stroke-width:0.513212;stroke-dasharray:none;stroke-opacity:0"
       x="65.689583"
       y="156.14641"
       id="text40101"
       transform="matrix(0.97163835,0.02511755,-0.02658751,1.0285022,0,0)"><tspan
         sodipodi:role="line"
         id="tspan40101"
         style="font-style:normal;font-variant:normal;font-weight:bold;font-stretch:normal;font-family:'Segoe Print';-inkscape-font-specification:'Segoe Print Bold';stroke-width:0.513212;stroke-dasharray:none"
         x="65.689583"
         y="156.14641">by</tspan></text><text
       xml:space="preserve"
       style="font-size:6.14886px;fill:#b0ff96;fill-opacity:1;stroke:#875b00;stroke-width:0.513212;stroke-dasharray:none;stroke-opacity:0"
       x="-0.85622323"
       y="171.3335"
       id="text40102"
       transform="matrix(0.88983713,-0.39102655,0.41391092,0.94191377,0,0)"><tspan
         sodipodi:role="line"
         id="tspan40102"
         style="font-style:normal;font-variant:normal;font-weight:bold;font-stretch:normal;font-family:'Segoe Print';-inkscape-font-specification:'Segoe Print Bold';stroke-width:0.513212;stroke-dasharray:none"
         x="-0.85622323"
         y="171.3335">Block </tspan></text></g></svg>
